<?xml version="1.0" encoding="UTF-8"?>
<svg id="svg12" version="1.1" width="1914px" height="333.4px" viewBox="0 0 1914 333.4" xmlns="http://www.w3.org/2000/svg">
<title id="title1">Khronos Group logo</title>
<desc id="desc1">A non-profit standard organisation based in Beaverton, Oregon, United States</desc>
<g id="Swirl" fill="#c33">
	<path id="upper" d="m888 226.78c-69.5-2.5-164.4-34.2-184.1-80-17-41.7-0.1-90.2 80.1-124.7 47.6-19.8 119.6-25.4 175.1-20.3 78.7 7.2 153.7 47.9 153.8 48.1v57.1l-0.1 3.8s-24.4-22.1-54.9-39.9c-28.7-16.8-55-28.6-107.2-33.4-12.2-1.1-33-3.9-66.7 0.8-13.6 1.9-32.8 3.3-76 22.3-14 6.7-26.9 13.8-36.9 22.1-5.2 4.3-12.3 10.4-17.3 15.6-12.3 15.4-18.8 27-15.7 48 3.6 15.8 10.6 25.7 30.9 40.8 8.8 6.6 9.8 6.5 13.7 8.5 36.3 18.8 65.3 25.7 106.7 30.9"/>
	<path id="lower" d="m891.8 48.78c69.7-0.3 168.5 27.6 194.2 72.6 22.5 40.9 12.1 90-63.3 127.5-44.8 21.7-115.9 30.1-171.9 27.2-79.5-4.1-159.7-41.8-159.8-41.9l-7.6-56.9-0.5-3.8s27.3 21.1 60.1 37.7c30.9 15.6 58.7 26.4 111.4 29.1 12.3 0.7 33.4 2.5 66.4-3.4 13.3-2.4 32.3-4.6 72.8-25.2 13.1-7.2 25-14.8 33.8-23.5 4.6-4.5 10.9-10.9 15.2-16.2 10.2-15.9 15.2-27.7 9.3-48.5-5.7-15.6-14-25.2-36.2-39.5-9.6-6.2-10.6-6.1-14.8-8-38.7-17.3-68.5-23-110.6-26.6"/>
</g>
<path id="Registered" d="m1892 32.779c-11.377 0-20.6 9.2245-20.6 20.602 0 11.377 9.2225 20.6 20.6 20.6s20.6-9.2226 20.6-20.6c0-11.377-9.2225-20.602-20.6-20.602zm0 3.7461c9.3085 3e-5 16.854 7.547 16.854 16.855s-7.545 16.853-16.854 16.854c-9.3085-2e-5 -16.856-7.545-16.856-16.854s7.547-16.855 16.856-16.855zm-9.5996 5.8555 0.0996 22h5.5v-8.7012c0.3-0.1 0.4992-0.09961 0.6992-0.09961 0.8 0 1.5012 0.39922 2.2012 1.1992s2.0992 3.3 4.1992 7.5h6.5c-2.4-4.2-3.5996-6.2984-3.5996-6.3984-0.7-1-1.2008-1.7012-1.8008-2.2012-0.4-0.3-1.1004-0.7-1.9004-1 2-0.4 3.5-1.1988 4.5-2.2988 0.9-1 1.4004-2.3008 1.4004-3.8008 0-1.9-0.7004-3.4-1.9004-4.5-1.3-1.1-3.2996-1.6992-6.0996-1.6992zm5.3984 3.7988h2.6016c1.5 0 2.5992 0.30078 3.1992 0.80078s0.9004 1.2 0.9004 2-0.4 1.5-1 2-1.7008 0.79883-3.3008 0.79883h-2.4004z"/><g id="GROUP">
		<path id="path7" d="m1344.5 280.88-5.4 6c-4.49-4.104-10.46-6.712-16.6-6.6-5.49-0.089-11.06 1.926-14.92 5.896-3.75 3.557-6.17 8.467-6.63 13.624-0.69 6.099 0.8 12.563 4.78 17.333 3.63 4.571 9.2 7.589 15.06 7.889 4.99 0.386 10.12-0.844 14.29-3.665 0.7-0.685 2.27-1.009 2.02-2.21v-12.667h-12v-7.9h20.6v26c-5.27 4.026-11.31 7.314-17.93 8.357-8 1.288-16.65-0.185-23.3-4.974-6.03-4.277-10.47-10.824-11.88-18.114-1.39-6.822-0.73-14.122 2.34-20.413 3.28-6.978 9.28-12.632 16.51-15.352 8.15-2.998 17.46-2.388 25.32 1.223 2.9 1.342 5.61 3.176 7.74 5.573z"/>
		<path id="path8" d="m1429.5 273.58c4.62 0.024 9.24-0.055 13.86 0.056 4.16 0.156 8.57 0.707 12.02 3.249 4.31 3.185 6.41 8.699 6.32 13.95-0.01 4.087-1.85 8.093-4.93 10.777-2.4 2.17-5.5 3.443-8.67 3.968l17.7 24c-2.73 1.167-5.47 2.333-8.2 3.5-6.5-9.433-13-18.867-19.5-28.3v26.9c-2.9 0.233-5.8 0.467-8.7 0.7 0.03-19.6 0.07-39.2 0.1-58.8zm8.7 7.7v18.4c3.31-7e-3 6.77 0.199 9.84-1.277 2.99-1.303 5-4.42 5.05-7.669 0.19-2.828-0.8-5.911-3.26-7.527-2.92-1.984-6.57-2.073-9.97-2.027h-1.66v0.07z"/>
		<path id="path9" d="m1572.4 272.09a30.657 30.654 0 0 0-30.658 30.652 30.657 30.654 0 0 0 30.658 30.654 30.657 30.654 0 0 0 30.656-30.654 30.657 30.654 0 0 0-30.656-30.652zm0.7617 8.2754c11.626 2e-5 21.051 10.019 21.051 22.377 0 12.358-9.4245 22.377-21.051 22.377-11.626 3e-5 -22.574-10.018-22.574-22.377 0-12.358 10.948-22.377 22.574-22.377z"/>
		<path id="path10" d="m1693.5 272.78v33c0 7 0.9 11.9 2.7 14.8 1.8 2.8 4.8 4.2 9.1 4.2s7.4-1.3 9.3-4 2.9-7.1 2.9-13.3v-33.8l8.4-0.8v36.6c0 4.7-0.3 8.4-1 10.9s-1.9 4.7-3.5 6.6-3.9 3.4-6.7 4.6c-2.8 1.1-5.8 1.7-8.9 1.7-7 0-12.3-2-15.7-5.9-3.5-3.9-5.2-9.9-5.2-17.9v-35.7z"/>
		<path id="path11" d="m1810.5 273.58c5.64 0.016 11.28-0.033 16.92 0.027 5.04 0.182 10.37 1.361 14.16 4.904 3.41 3.13 4.73 7.898 4.72 12.403 0.12 4.369-1.4 8.854-4.59 11.914-3.87 3.886-9.4 5.48-14.74 5.841-2.59 0.232-5.18 0.027-7.77-0.089v23c-2.9 0.233-5.8 0.467-8.7 0.7v-58.7zm8.7 7.7v19.4c2.01 0.284 4.04 0.49 6.08 0.391 3.54-0.091 7.43-0.781 9.94-3.522 2.27-2.482 2.52-6.136 1.89-9.293-0.49-2.64-2.4-4.937-4.93-5.842-3.83-1.499-8-1.062-12.02-1.134h-0.96z"/>
	</g>
	<g id="KHRONOS">
		<path id="path1" d="m39.6 239.98h-39.6v-202.5h39.6zm0.6-100.6 61.3-101.9h44.2l-65 100.5 65 101.9h-44.2z"/>
		<path id="path2" d="m281.1 157.78v82.2h-39.6v-202.5h39.6v82.2h65.3v-82.2h39.6v202.5h-39.6v-82.2z"/>
		<path id="path3" d="m542.1 239.98h-39.6v-202.5c21.222 0.0797 42.448-0.1942 63.667 0.2162 15.208 0.4454 31.224 1.7907 44.406 10.134 13.098 7.6012 22.938 20.521 26.568 35.244 3.994 16.413 2.706 34.547-5.403 49.545-7.443 13.943-21.046 24.176-36.357 27.913-3.225 0.281-4.888 1.051-2.349 3.633 16.289 25.272 32.579 50.543 48.868 75.814h-47.2l-52.5-93.9c-0.033 31.3-0.067 62.6-0.1 93.9zm0-103.8c14.099 0.098 28.892 0.219 41.731-6.425 9.353-4.524 15.744-14.234 16.158-24.622 0.816-9.8506-1.867-20.929-10.389-26.853-10.522-7.226-23.807-7.7516-36.142-7.7h-11.358v65.6z"/>
		<path id="path4" d="m1201.5 239.98h-38.9v-202.5h37.6l83.8 129.3v-129.3h38.9v202.5h-36.8l-84.6-133.2z"/>
		<path id="path5" d="m1534.7 33.48a105.3 105.3 0 0 0-105.3 105.3 105.3 105.3 0 0 0 105.3 105.3 105.3 105.3 0 0 0 105.3-105.3 105.3 105.3 0 0 0-105.3-105.3zm0.0488 41.1c35.358-1e-5 62.65 28.943 62.65 64.301 0 35.358-27.292 64.1-62.65 64.1-35.358 0-62.75-28.741-62.75-64.1 0-35.358 27.392-64.301 62.75-64.301z"/>
		<path id="path6" d="m1734.5 177.28c12.1-0.033 24.2-0.067 36.3-0.1-0.39 8.966 1.41 18.78 8.32 25.095 7.57 7.164 19.67 7.42 28.72 3.117 8.52-4.132 12.89-13.799 12.75-22.949 0.53-8.81-4.68-17.076-12.01-21.649-10.63-7.138-23.81-8.394-35.12-14.12-12.7-5.796-24.35-15.516-29.25-28.925-4.95-13.265-4.37-28.032-1.19-41.635 4.38-18.289 18.18-34.573 36.5-39.885 13.55-3.8629 28.5-3.7178 41.7 1.4187 15.03 5.8661 25.61 19.925 29.7 35.23 1.75 6.1879 2.7 12.587 3.08 19.002h-35.9c0.49-7.3794-2.27-15.287-8.63-19.486-6.99-4.6561-16.74-4.8503-24.02-0.746-7.52 4.41-10.18 13.767-9.48 22.007 0.18 7.016 4.74 13.275 10.96 16.292 13.58 7.378 29.54 8.486 43.14 15.851 11.49 5.703 21.35 15.389 25.42 27.747 4.59 13.564 3.99 28.404 1.06 42.25-4.33 19.979-18.67 38.12-38.31 44.759-14.33 4.747-30.32 4.998-44.65 0.123-17.3-5.945-30.19-21.279-35.37-38.55-2.5-8.029-3.59-16.452-3.72-24.847z"/>
	</g>
</svg>
